<svg xmlns="http://www.w3.org/2000/svg" xmlns:xlink="http://www.w3.org/1999/xlink" width="62" height="53" version="1.1" viewBox="0 0 62 53"><title>Artboard</title><desc>Created with Sketch.</desc><g id="Page-1" fill="none" fill-rule="evenodd" stroke="none" stroke-width="1"><g id="Artboard"><g id="Vector-Smart-Object2" transform="translate(1.000000, 0.000000)"><polygon id="Shape" fill="#6AA53D" fill-rule="nonzero" points="22.07 8.28 47.72 0 50.97 8.57"/><rect id="Rectangle-path" width="59.07" height="43.78" x="0" y="8.11" stroke="#64696C" stroke-width="2" rx="2.78"/><path id="Shape" fill="#64696C" fill-rule="nonzero" d="M43.24,29.88 C43.2399916,30.8516176 42.6541624,31.7273707 41.7561156,32.0982515 C40.8580688,32.4691324 39.8250061,32.261959 39.1394045,31.5734888 C38.4538029,30.8850186 38.2509448,29.8511 38.6255721,28.9546095 C39.0001994,28.058119 39.8783909,27.4759516 40.85,27.48 C41.4856038,27.4799944 42.0950301,27.7331695 42.5435306,28.1835466 C42.9920311,28.6339237 43.2426594,29.2444017 43.24,29.88 Z"/><path id="Shape" stroke="#64696C" stroke-width="2" d="M60,36.48 L40.26,36.48 C36.7695604,36.48 33.94,33.6504396 33.94,30.16 L33.94,29.37 C33.9399979,27.6947499 34.6061721,26.0882594 35.7916903,24.904617 C36.9772086,23.7209745 38.584752,23.0573451 40.26,23.06 L60,23.0599921"/><polyline id="Shape" stroke="#64696C" stroke-width="1.4" points="5.21 19.75 5.21 13.49 12.16 13.49"/><path id="Shape" stroke="#64696C" stroke-width="1.4" d="M5.21,28.23 L5.21,23.36"/><polyline id="Shape" stroke="#64696C" stroke-width="1.4" points="5.21 40.56 5.21 46.82 12.16 46.82"/><path id="Shape" stroke="#64696C" stroke-width="1.4" d="M15.43,13.49 L20.99,13.49"/><path id="Shape" stroke="#64696C" stroke-width="1.4" d="M15.43,46.82 L20.99,46.82"/><path id="Shape" stroke="#64696C" stroke-width="1.4" d="M23.77,13.49 L29.33,13.49"/><path id="Shape" stroke="#64696C" stroke-width="1.4" d="M23.77,46.82 L29.33,46.82"/><path id="Shape" stroke="#64696C" stroke-width="1.4" d="M32.11,13.49 L37.67,13.49"/><path id="Shape" stroke="#64696C" stroke-width="1.4" d="M32.11,46.82 L37.67,46.82"/><path id="Shape" stroke="#64696C" stroke-width="1.4" d="M40.45,13.49 L46.01,13.49"/><path id="Shape" stroke="#64696C" stroke-width="1.4" d="M40.45,46.82 L46.01,46.82"/><path id="Shape" stroke="#64696C" stroke-width="1.4" d="M48.79,13.49 L54.35,13.49"/><path id="Shape" stroke="#64696C" stroke-width="1.4" d="M48.79,46.82 L54.35,46.82"/><path id="Shape" stroke="#64696C" stroke-width="1.4" d="M5.21,31.81 L5.21,36.67"/></g></g></g></svg>