<svg xmlns="http://www.w3.org/2000/svg" xmlns:xlink="http://www.w3.org/1999/xlink" width="62" height="54" version="1.1" viewBox="0 0 62 54"><title>Vector Smart Object</title><desc>Created with Sketch.</desc><g id="Custom-Preset" fill="none" fill-rule="evenodd" stroke="none" stroke-width="1" transform="translate(-909.000000, -365.000000)"><g id="Vector-Smart-Object" transform="translate(910.000000, 366.000000)"><rect id="Rectangle-path" width="59.77" height="51.33" x="0" y="0" stroke="#64696C" stroke-width="2" rx="2.81"/><path id="Shape" stroke="#64696C" stroke-width="2" d="M0,11.02 L60,11.02"/><polyline id="Shape" stroke="#64696C" stroke-width="2" points="25 29.02 10 29.02 10 19.02 49 19.02 49 29.02"/><path id="Shape" fill="#64696C" fill-rule="nonzero" d="M9.61,5.62 C9.61404893,6.47431369 9.102539,7.24676002 8.31441521,7.57650108 C7.52629142,7.90624214 6.61710751,7.72819619 6.01157652,7.12553502 C5.40604553,6.52287385 5.22368246,5.61454601 5.54967576,4.82486466 C5.87566906,4.03518331 6.64567672,3.52000959 7.5,3.52 C8.05868524,3.51733956 8.59540107,3.73741389 8.99139293,4.13152901 C9.38738478,4.52564413 9.61000633,5.06130842 9.61,5.62 Z"/><path id="Shape" fill="#64696C" fill-rule="nonzero" d="M16.64,5.62 C16.6440489,6.47431369 16.132539,7.24676002 15.3444152,7.57650108 C14.5562914,7.90624214 13.6471075,7.72819619 13.0415765,7.12553502 C12.4360455,6.52287385 12.2536825,5.61454601 12.5796758,4.82486466 C12.9056691,4.03518331 13.6756767,3.52000959 14.53,3.52 C15.0886852,3.51733956 15.6254011,3.73741389 16.0213929,4.13152901 C16.4173848,4.52564413 16.6400063,5.06130842 16.64,5.62 Z"/><path id="Shape" fill="#64696C" fill-rule="nonzero" d="M23.67,5.62 C23.6740489,6.47431369 23.162539,7.24676002 22.3744152,7.57650108 C21.5862914,7.90624214 20.6771075,7.72819619 20.0715765,7.12553502 C19.4660455,6.52287385 19.2836825,5.61454601 19.6096758,4.82486466 C19.9356691,4.03518331 20.7056767,3.52000959 21.56,3.52 C22.1186852,3.51733956 22.6554011,3.73741389 23.0513929,4.13152901 C23.4473848,4.52564413 23.6700063,5.06130842 23.67,5.62 Z"/><polygon id="Shape" fill="#6AA53D" fill-rule="nonzero" points="47.44 35.33 37.81 36.88 30.95 43.8 30.12 21.91"/><rect id="Rectangle-path" width="5.38" height="10.76" x="37.078" y="35.314" fill="#6AA53D" fill-rule="nonzero" transform="translate(39.767918, 40.693886) rotate(-27.200000) translate(-39.767918, -40.693886)"/></g></g></svg>