<svg xmlns="http://www.w3.org/2000/svg" xmlns:xlink="http://www.w3.org/1999/xlink" id="Слой_1" x="0" y="0" version="1.1" viewBox="-297 386 16 21" xml:space="preserve" style="enable-background:new -297 386 16 21"><style type="text/css">.st0{clip-path:url(#SVGID_2_);fill:#909090}.st1{clip-path:url(#SVGID_4_);fill:none;stroke:#909090;stroke-width:2;stroke-miterlimit:10}</style><g><g><defs><rect id="SVGID_1_" width="16" height="21" x="-297" y="386"/></defs><clipPath id="SVGID_2_"><use xlink:href="#SVGID_1_" style="overflow:visible"/></clipPath><path d="M-281,405v-10c0-1.1-0.9-2-2-2h-12c-1.1,0-2,0.9-2,2v10c0,1.1,0.9,2,2,2h12C-281.9,407-281,406.1-281,405 M-287,400c0,1.1-0.9,2-2,2s-2-0.9-2-2s0.9-2,2-2S-287,398.9-287,400" class="st0"/></g><g><defs><rect id="SVGID_3_" width="16" height="21" x="-297" y="386"/></defs><clipPath id="SVGID_4_"><use xlink:href="#SVGID_3_" style="overflow:visible"/></clipPath><path d="M-284,397v-5c0-2.8-2.2-5-5-5s-5,2.2-5,5v5" class="st1"/></g></g></svg>