<?xml version="1.0" encoding="UTF-8"?>
<svg width="60px" height="59px" viewBox="0 0 60 59" version="1.1" xmlns="http://www.w3.org/2000/svg" xmlns:xlink="http://www.w3.org/1999/xlink">
    <!-- Generator: Sketch 48.2 (47327) - http://www.bohemiancoding.com/sketch -->
    <title>Artboard</title>
    <desc>Created with Sketch.</desc>
    <defs></defs>
    <g id="Page-1" stroke="none" stroke-width="1" fill="none" fill-rule="evenodd">
        <g id="Artboard">
            <g id="Vector-Smart-Object4" transform="translate(1.000000, 1.000000)">
                <rect id="Rectangle-path" stroke="#9FAAB2" stroke-width="2" x="0" y="0" width="57.73" height="56.14" rx="3.19"></rect>
                <path d="M0,12.48 L58,12.48" id="Shape" stroke="#9FAAB2" stroke-width="2"></path>
                <path d="M9.15,6.37 C9.15,7.4745695 8.2545695,8.37 7.15,8.37 C6.0454305,8.37 5.15,7.4745695 5.15,6.37 C5.15,5.2654305 6.0454305,4.37 7.15,4.37 C8.2545695,4.37 9.15,5.2654305 9.15,6.37 Z" id="Shape" fill="#9FAAB2" fill-rule="nonzero"></path>
                <path d="M15.9,6.37 C15.9,7.4745695 15.0045695,8.37 13.9,8.37 C12.7954305,8.37 11.9,7.4745695 11.9,6.37 C11.9,5.2654305 12.7954305,4.37 13.9,4.37 C15.0045695,4.37 15.9,5.2654305 15.9,6.37 Z" id="Shape" fill="#9FAAB2" fill-rule="nonzero"></path>
                <path d="M22.65,6.37 C22.65,7.4745695 21.7545695,8.37 20.65,8.37 C19.5454305,8.37 18.65,7.4745695 18.65,6.37 C18.65,5.2654305 19.5454305,4.37 20.65,4.37 C21.7545695,4.37 22.65,5.2654305 22.65,6.37 Z" id="Shape" fill="#9FAAB2" fill-rule="nonzero"></path>
                <rect id="Rectangle-path" fill="#6AA53D" fill-rule="nonzero" x="10.93" y="37" width="35.11" height="8.96" rx="2"></rect>
                <path d="M10.94,24.79 L45.9,24.79" id="Shape" stroke="#64696C" stroke-width="2"></path>
                <path d="M10.94,29.79 L45.9,29.79" id="Shape" stroke="#64696C" stroke-width="2"></path>
            </g>
        </g>
    </g>
</svg>