<?xml version="1.0" encoding="UTF-8"?>
<svg width="61px" height="55px" viewBox="0 0 61 55" version="1.1" xmlns="http://www.w3.org/2000/svg" xmlns:xlink="http://www.w3.org/1999/xlink">
    <!-- Generator: Sketch 48.2 (47327) - http://www.bohemiancoding.com/sketch -->
    <title>Artboard</title>
    <desc>Created with Sketch.</desc>
    <defs></defs>
    <g id="Page-1" stroke="none" stroke-width="1" fill="none" fill-rule="evenodd">
        <g id="Artboard">
            <g id="why-find-icon" transform="translate(0.000000, 1.000000)">
                <path d="M23.24,52.18 C9.43220762,50.0502626 -0.285512694,37.4749655 1.13622028,23.5764193 C2.55795325,9.67787311 14.6205109,-0.66943993 28.5735316,0.0405775054 C42.5265523,0.750594941 53.4764485,12.2689263 53.48,26.24" id="Shape" stroke="#9FAAB2" stroke-width="2" stroke-linecap="round"></path>
                <path d="M27.19,6.03 L27.19,8.26" id="Shape" stroke="#64696C" stroke-width="2" stroke-linecap="round"></path>
                <path d="M6.93,26.28 L9.16,26.28" id="Shape" stroke="#64696C" stroke-width="2" stroke-linecap="round"></path>
                <path d="M45.34,26.28 L47.57,26.28" id="Shape" stroke="#64696C" stroke-width="2" stroke-linecap="round"></path>
                <path d="M23.64,25 L17.52,18.15 C17.0332888,17.7041798 16.8426615,17.0202651 17.0285885,16.3869606 C17.2145155,15.7536561 17.7445951,15.2813283 18.3950621,15.1693634 C19.0455292,15.0573986 19.703026,15.3253089 20.09,15.86 L26.21,22.71" id="Shape" fill="#64696C" fill-rule="nonzero"></path>
                <path d="M28,23.14 L36.76,10.14 C37.28,9.39 38.13,9.07 38.66,9.43 C39.1738915,9.99763499 39.1738915,10.862365 38.66,11.43 L29.9,24.43 L28,23.14 Z" id="Shape" fill="#64696C" fill-rule="nonzero"></path>
                <path d="M30.26,26.24 C30.26,27.8968542 28.9168542,29.24 27.26,29.24 C25.6031458,29.24 24.26,27.8968542 24.26,26.24 C24.26,24.5831458 25.6031458,23.24 27.26,23.24 C28.9168542,23.24 30.26,24.5831458 30.26,26.24 Z" id="Shape" stroke="#64696C" stroke-width="2"></path>
                <path d="M44.49,53.82 L29.57,53.82 L29.57,51 L36.64,43.42 C37.4690509,42.5008959 38.1965887,41.4950834 38.81,40.42 C39.2110394,39.7396373 39.4345593,38.9693533 39.46,38.18 C39.4934164,37.3621509 39.2306664,36.5596982 38.72,35.92 C38.1971835,35.3029987 37.4178825,34.9632087 36.61,35 C35.7230998,34.9372812 34.861217,35.3103906 34.3,36 C33.740493,36.8006418 33.4626264,37.7643817 33.51,38.74 L29.25,38.74 L29.25,38.65 C29.1754775,36.7747859 29.9027844,34.9565188 31.25,33.65 C32.7076954,32.2580659 34.6778263,31.533753 36.69,31.65 C38.6192557,31.5412367 40.5176407,32.1704566 42,33.41 C43.2984705,34.6107831 44.0010286,36.3232685 43.92,38.09 C43.9258747,39.389394 43.5503648,40.6619554 42.84,41.75 C41.7536727,43.3029712 40.5501631,44.7705844 39.24,46.14 L35.35,50.37 L35.35,50.45 L44.54,50.45 L44.49,53.82 Z" id="Shape" fill="#6AA53D" fill-rule="nonzero"></path>
                <path d="M58.52,45.69 L61,45.69 L61,49.07 L58.52,49.07 L58.52,53.82 L54.15,53.82 L54.15,49.07 L45.24,49.07 L45,46.44 L54.11,32 L58.52,32 L58.52,45.69 Z M49.12,45.69 L54.12,45.69 L54.12,37.81 L54.03,37.81 L53.69,38.43 L49.12,45.69 Z" id="Shape" fill="#6AA53D" fill-rule="nonzero"></path>
            </g>
        </g>
    </g>
</svg>