<svg xmlns="http://www.w3.org/2000/svg" xmlns:xlink="http://www.w3.org/1999/xlink" width="60" height="61" version="1.1" viewBox="0 0 52 63"><title>Artboard</title><desc>Created with Sketch.</desc><g id="Page-1" fill="none" fill-rule="evenodd" stroke="none" stroke-width="1"><g id="Artboard"><g id="Vector-Smart-Object21" transform="translate(1.000000, 1.000000)"><path id="Shape" stroke="#9FAAB2" stroke-width="2" d="M38.64,8.8817842e-16 L10.57,8.8817842e-16 C10.1312719,5.87761402 5.79316909,10.7246333 0,11.81 L0,36.23 C-1.11022302e-15,50 24.94,60 24.94,60 C24.94,60 49.88,50 49.88,36.23 L49.88,11.91 C43.7893956,11.0953995 39.1009873,6.12752206 38.64,8.8817842e-16 Z"/><path id="Shape" stroke="#64696C" stroke-linecap="round" stroke-width="3" d="M19.58,22.82 L19.58,18.47 C19.58,15.5097537 21.9797537,13.11 24.94,13.11 C27.9002463,13.11 30.3,15.5097537 30.3,18.47 L30.3,22.82"/><path id="Shape" fill="#6AA53D" fill-rule="nonzero" d="M34.2,21 L15.67,21 C14.1109408,21.0055091 12.8499903,22.2709311 12.85,23.83 L12.85,38.11 C12.85,39.667443 14.112557,40.93 15.67,40.93 L34.2,40.93 C35.7473491,40.9136054 36.9946189,39.6574266 37,38.11 L37,23.82 C36.9946189,22.2725734 35.7473491,21.0163946 34.2,21 Z M27.68,36.15 L22.21,36.15 L23.36,31.32 C22.3869987,30.6299849 21.9721984,29.3897665 22.3342921,28.2532189 C22.6963857,27.1166712 23.7521663,26.3449664 24.945,26.3449664 C26.1378337,26.3449664 27.1936143,27.1166712 27.5557079,28.2532189 C27.9178016,29.3897665 27.5030013,30.6299849 26.53,31.32 L27.68,36.15 Z"/></g></g></g></svg>